<?xml version="1.0" encoding="UTF-8"?> <svg xmlns="http://www.w3.org/2000/svg" width="68" height="68" viewBox="0 0 68 68" fill="none"><g clip-path="url(#clip0_102_2)"><path d="M66.4063 34C66.4063 24.9688 62.8203 16.8672 56.9766 11.0234C51.1328 5.17969 43.0313 1.59375 34 1.59375C24.9688 1.59375 16.8672 5.17969 11.0234 11.0234C5.17969 16.8672 1.59375 24.9688 1.59375 34C1.59375 43.0313 5.17969 51.1328 11.0234 56.9766C16.8672 62.8203 24.9688 66.4063 34 66.4063C43.0313 66.4063 51.1328 62.8203 56.9766 56.9766C62.8203 51.1328 66.4063 43.0313 66.4063 34ZM58.0391 9.96094C64.1484 16.0703 68 24.5703 68 34C68 43.4297 64.1484 51.9297 58.0391 58.0391C51.9297 64.1484 43.4297 68 34 68C24.5703 68 16.0703 64.1484 9.96094 58.0391C3.85156 51.9297 1.074e-06 43.4297 1.48619e-06 34C1.89837e-06 24.5703 3.85156 16.0703 9.96094 9.96094C16.0703 3.85156 24.5703 1.074e-06 34 1.48619e-06C43.4297 1.89837e-06 51.9297 3.85156 58.0391 9.96094Z" fill="black"></path><path d="M19.125 42.1016C18.8594 41.8359 18.8594 41.3047 19.125 41.0391C19.3906 40.7734 19.9219 40.7734 20.1875 41.0391L34 54.8516L47.8125 41.0391C48.0781 40.7734 48.6094 40.7734 48.875 41.0391C49.1406 41.3047 49.1406 41.8359 48.875 42.1016L34.5313 56.4453C34.2656 56.8438 33.7344 56.8438 33.4688 56.4453L19.125 42.1016Z" fill="black"></path><path d="M34.7969 55.9141C34.7969 56.3125 34.3984 56.7109 34 56.7109C33.6016 56.7109 33.2031 56.3125 33.2031 55.9141L33.2031 12.0859C33.2031 11.6875 33.6016 11.2891 34 11.2891C34.3984 11.2891 34.7969 11.6875 34.7969 12.0859L34.7969 55.9141Z" fill="black"></path></g><defs><clipPath id="clip0_102_2"><rect width="68" height="68" fill="white" transform="translate(68 2.97237e-06) rotate(90)"></rect></clipPath></defs></svg> 