<?xml version="1.0" encoding="UTF-8"?> <svg xmlns="http://www.w3.org/2000/svg" width="68" height="68" viewBox="0 0 68 68" fill="none"><g clip-path="url(#clip0_54_207)"><path d="M34 1.59375C24.9688 1.59375 16.8672 5.17969 11.0234 11.0234C5.17969 16.8672 1.59375 24.9688 1.59375 34C1.59375 43.0312 5.17969 51.1328 11.0234 56.9766C16.8672 62.8203 24.9688 66.4062 34 66.4062C43.0312 66.4062 51.1328 62.8203 56.9766 56.9766C62.8203 51.1328 66.4062 43.0312 66.4062 34C66.4062 24.9688 62.8203 16.8672 56.9766 11.0234C51.1328 5.17969 43.0312 1.59375 34 1.59375ZM9.96094 9.96094C16.0703 3.85156 24.5703 0 34 0C43.4297 0 51.9297 3.85156 58.0391 9.96094C64.1484 16.0703 68 24.5703 68 34C68 43.4297 64.1484 51.9297 58.0391 58.0391C51.9297 64.1484 43.4297 68 34 68C24.5703 68 16.0703 64.1484 9.96094 58.0391C3.85156 51.9297 0 43.4297 0 34C0 24.5703 3.85156 16.0703 9.96094 9.96094Z" fill="black"></path><path d="M42.1016 48.875C41.8359 49.1406 41.3047 49.1406 41.0391 48.875C40.7734 48.6094 40.7734 48.0781 41.0391 47.8125L54.8516 34L41.0391 20.1875C40.7734 19.9219 40.7734 19.3906 41.0391 19.125C41.3047 18.8594 41.8359 18.8594 42.1016 19.125L56.4453 33.4688C56.8438 33.7344 56.8438 34.2656 56.4453 34.5312L42.1016 48.875Z" fill="black"></path><path d="M55.9141 33.2031C56.3125 33.2031 56.7109 33.6016 56.7109 34C56.7109 34.3984 56.3125 34.7969 55.9141 34.7969H12.0859C11.6875 34.7969 11.2891 34.3984 11.2891 34C11.2891 33.6016 11.6875 33.2031 12.0859 33.2031H55.9141Z" fill="black"></path></g><defs><clipPath id="clip0_54_207"><rect width="68" height="68" fill="white"></rect></clipPath></defs></svg> 