<?xml version="1.0" encoding="UTF-8"?> <svg xmlns="http://www.w3.org/2000/svg" width="144" height="144" viewBox="0 0 144 144" fill="none"><rect width="107.48" height="107.48" rx="53.7399" transform="matrix(-0.42919 0.903214 0.903214 0.42919 46.1293 6.14259e-06)" fill="#51FF00"></rect><path d="M76.0222 88.5589C77.0944 89.0684 78.3768 88.6122 78.8863 87.5399L87.1896 70.066C87.6991 68.9937 87.2429 67.7114 86.1706 67.2019C85.0983 66.6923 83.816 67.1485 83.3065 68.2208L75.9258 83.7532L60.3934 76.3725C59.3211 75.863 58.0388 76.3192 57.5293 77.3915C57.0197 78.4638 57.476 79.7461 58.5482 80.2556L76.0222 88.5589ZM65.8512 55.4352L63.826 56.1558L74.9195 87.3379L76.9447 86.6173L78.97 85.8968L67.8765 54.7147L65.8512 55.4352Z" fill="white"></path></svg> 